<?xml version="1.0" encoding="UTF-8"?>
<svg id="Layer_2" data-name="Layer 2" xmlns="http://www.w3.org/2000/svg" viewBox="0 0 118.71 72.74">
  <defs>
    <style>
      .cls-1 {
        fill: #b37466;
      }

      .cls-2 {
        fill: #fff;
      }

      .cls-3 {
        fill: #a7b338;
      }

      .cls-4 {
        fill: #ea9f5e;
      }

      .cls-5 {
        fill: #69574a;
      }
    </style>
  </defs>
  <g id="Layer_1-2" data-name="Layer 1">
    <g>
      <rect class="cls-2" width="118.71" height="72.74" rx="8.02" ry="8.02"/>
      <g>
        <path class="cls-3" d="M39.31,23.95c-1.56,1.74-3.98,4.84-7.25,9.32-3.27,4.46-3.98,7.33-5.31,8.61-1.33,1.28-2.42,1.92-3.27,1.92-.65,0-1.28-.49-1.9-1.46-.62-.97-1.41-2.94-2.39-5.89-2.02-6.02-3.3-9.49-3.82-10.41-.19.54-.4,1.41-.64,2.63-.51,2.56-1.18,5.68-2.02,9.36-1.63,7.06-2.55,11.74-2.77,14.03-.03.28-.29.59-.77.92-.48.33-.87.5-1.17.5-.57,0-1.09-.28-1.58-.85-.48-.57-.72-1.12-.72-1.66,0-1.39.46-3.82,1.37-7.28l2.06-7.78c1.26-4.9,2.05-8.5,2.35-10.81.3-2.31.45-4.12.45-5.45s1.08-2.06,3.25-2.06c.46,0,.94.4,1.45,1.2.51.8.84,1.5,1,2.1.21.6.45,1.27.73,2.02l3.18,8.89c1.25,3.64,2.02,5.69,2.31,6.15.29.47.53.7.72.7.81-.17,2.07-3.64,6.97-10.41,5.45-7.51,8.57-11.26,9.34-11.26.63,0,1.33.25,2.1.75.77.5,1.15.93,1.15,1.29,0,.16-.46,3.63-1.37,10.41-.33,2.51-.64,5.53-.92,9.04-.28,3.52-.43,5.5-.43,5.94,0,.81.14,1.71.43,2.7.25.89.38,1.6.38,2.13,0,.43-.08,1.05-.24,1.86-.16.81-.5,1.29-1.03,1.43-.53.14-.95.21-1.27.21-1.66,0-2.49-1.38-2.49-4.15,0-2.53.55-8.72,1.64-18.56.08-.79.12-1.28.12-1.47,0-.13.09-.66.28-1.59.14-.79.21-1.45.21-1.99s-.04-.87-.12-1.04Z"/>
        <path class="cls-4" d="M70.4,43.87c0,1.61-1.43,3.56-4.28,5.83-2.85,2.28-5.8,3.41-8.83,3.41-2.54,0-4.51-.75-5.89-2.25-1.38-1.5-2.07-3.6-2.07-6.28,0-4.52,1.52-8.82,4.58-12.9,3.05-4.08,6.38-6.12,10-6.12,1.19,0,2.15.39,2.9,1.16.75.77,1.13,1.71,1.13,2.8,0,2.43-1.19,4.76-3.58,6.99-2.39,2.23-5.58,4.42-9.58,6.57-.82.43-1.23.98-1.23,1.66,0,1.31.38,2.36,1.14,3.15.76.79,1.88,1.19,3.37,1.19,3.4,0,6.87-1.88,10.41-5.64.52-.52.92-.78,1.19-.78.51,0,.76.4.76,1.21ZM53.93,40.17c6.7-3.98,10.05-7.18,10.05-9.6,0-.95-.43-1.42-1.28-1.42-1.45,0-3.09,1.07-4.92,3.2-1.83,2.13-3.11,4.74-3.85,7.82Z"/>
        <path class="cls-1" d="M81.58,12.9c.98.24,1.02.62,1.14,1.61.16,1.29.45,3.81-.93,8.68-.87,3.07-1.54,6.45-2.01,10.15-.47,3.7-.14,6.6-.14,8.7,0,2.61.17,5.2.5,7.78.06.49.09.85.09,1.07,0,.79-.27,1.47-.81,2.04-.54.57-1.11.85-1.71.85-.84,0-1.42-.52-1.74-1.56-.32-1.04-.49-2.73-.49-5.05,0-5.29.07-11.85,1.34-19.68,1.27-7.82,1.72-11.26,2.47-12.59.75-1.33,1.54-2.18,2.29-1.99Z"/>
        <path class="cls-5" d="M99.66,53.42c-2.12,0-4.25-.59-6.2-1.78-4.11-2.51-6.22-7.01-5.49-11.74.56-3.68,2.04-6.83,4.39-9.33,2.53-2.7,6.09-4,9.8-3.57,3.78.44,7.03,2.57,8.93,5.86,1.91,3.3,2.42,7.21,1.42,10.74-.97,3.4-3.27,6.17-6.67,8.01-1.91,1.2-4.05,1.81-6.19,1.81ZM100.79,30.32c-2.26,0-4.39.91-5.94,2.57-1.87,2-3.05,4.53-3.51,7.52-.61,4,1.61,6.91,3.9,8.31,2.31,1.41,5.98,2.1,9.29-.29h0c2.4-1.39,4.03-3.38,4.71-5.78.74-2.6.33-5.63-1.1-8.1-1.35-2.35-3.68-3.87-6.37-4.18-.33-.04-.65-.06-.98-.06Z"/>
        <path class="cls-3" d="M5.7,55.39v8.96c0,1.41,1.15,2.56,2.56,2.56h34.9c1.41,0,2.56-1.15,2.56-2.56v-10.67s-21.68,11.15-40.02,1.71Z"/>
        <path class="cls-3" d="M5.7,18.97v-10.58c0-1.41,1.15-2.56,2.56-2.56h34.9c1.41,0,2.56,1.15,2.56,2.56v6.97S21.71,5.83,5.7,18.97Z"/>
        <path class="cls-4" d="M49.33,52.27v11.57c0,1.69,1.38,3.07,3.07,3.07h14.93c1.69,0,3.07-1.38,3.07-3.07v-11.34s-16.48,7.79-21.07-.23Z"/>
        <path class="cls-4" d="M70.4,24.31v-15.4c0-1.69-1.38-3.07-3.07-3.07h-14.93c-1.69,0-3.07,1.38-3.07,3.07v15.13s16.6-6.11,21.07.27Z"/>
        <path class="cls-5" d="M113.02,27.64V8.42c0-1.42-1.16-2.58-2.58-2.58h-19.66c-1.42,0-2.58,1.16-2.58,2.58v19.47s9.09-11.03,24.83-.25Z"/>
        <path class="cls-5" d="M88.19,50.6v13.72c0,1.42,1.16,2.58,2.58,2.58h19.66c1.42,0,2.58-1.16,2.58-2.58v-13.18s-12.6,12.74-24.83-.54Z"/>
        <path class="cls-1" d="M74.35,54.54v10.92c0,.8.65,1.45,1.45,1.45h6.75c1.07,0,1.94-.87,1.94-1.94v-10.77s-6.69,3.71-10.14.34Z"/>
        <path class="cls-1" d="M85.21,12.25v-4.57c0-1.02-.83-1.85-1.85-1.85h-7.93c-1.07,0-1.95.88-1.95,1.95v4.86s11.01-5.85,11.73-.39Z"/>
      </g>
    </g>
  </g>
</svg>