<?xml version="1.0" encoding="UTF-8"?>
<svg id="Layer_2" data-name="Layer 2" xmlns="http://www.w3.org/2000/svg" viewBox="0 0 45.63 49.28">
  <defs>
    <style>
      .cls-1 {
        fill: #5a3727;
      }
    </style>
  </defs>
  <g id="Layer_1-2" data-name="Layer 1">
    <g id="uuid-67207634-9009-433d-a787-1ab185ab5449" data-name="Layer 1-2">
      <g id="VkMJsZ.tif">
        <path class="cls-1" d="M34.4,49.23c-15.98-1.68-29.78-16.31-33.29-31.49C.48,15.02-.48,8.77.28,6.22.78,4.54,4.91.79,6.58.2c1.83-.65,5.03.4,6.19,1.86,1.24,1.58,3.02,9.44,2.74,11.45-.36,2.54-4.76,3.87-4.33,6.49.34,2.07,4.07,7.27,5.55,8.97s7.87,7.73,9.89,7.94c1.76.18,3.91-3.36,6.13-3.72,1.58-.26,9.69,2.71,10.95,3.88,1.02.95,1.33,2.48,1.93,3.68v1.92c-1.53,2.9-4.26,5.04-7.12,6.57-1.32-.1-2.81.14-4.11,0h0Z"/>
      </g>
    </g>
  </g>
</svg>
